<svg xmlns="http://www.w3.org/2000/svg" viewBox="0 0 161 161"><defs><style>.cls-1{fill:#f5fafc;stroke:#adc7dc;stroke-miterlimit:10;}.cls-2{fill:#adc7dc;}</style></defs><title>Asset 1</title><g id="Layer_2" data-name="Layer 2"><g id="svg"><path class="cls-1" d="M160.5,80.5a80,80,0,0,1-136.1,57,80,80,0,1,1,136.1-57Z"/><path class="cls-2" d="M136.7,137.4a79.92,79.92,0,0,1-112.3.1c1.1-13,9.6-20.6,28.7-25.8,9-2.5,12.7-5.7,14.5-12.9.2-.9-1.4-3.7-5.8-10.1-5.6-8.1-8.2-14.6-9.3-23.6-.2-1.7-.3-3.4-.4-5v-3c.6-15.4,9.2-25.6,24.1-27.6,1.1-.2,2.3-.2,3.4-.3h2.2c13.9.4,25.1,9.6,26.9,22.8.2,1.3.3,2.6.4,3.9v.4c0,.4,0,.5.1.4a21.64,21.64,0,0,1,0,3.6v-.2c-.1-.2-.1,0-.1.4s0,.6.1.3v-.1c-.3,10-3.7,19.3-10.5,28.9A64.44,64.44,0,0,0,94,97.2l-.5,1.1.9,2.4c2.3,6.1,4.7,8.2,11.9,10.3,11.9,3.5,17.1,5.8,21.9,9.7.7.6,1.4,1.2,2,1.8A25.06,25.06,0,0,1,136.7,137.4Z"/></g></g></svg>